<svg xmlns="http://www.w3.org/2000/svg" width="37" height="27" viewBox="0 0 37 27" fill="none">
  <rect y="5.59583" width="1.53886" height="16.0881" fill="white"/>
  <rect x="0.699768" y="2.93781" width="0.279793" height="21.4041" fill="white"/>
  <rect x="26.2596" y="2.34247" width="1.60274" height="22.3151" fill="white"/>
  <rect x="27" width="0.279793" height="27" fill="white"/>
  <rect x="9.09302" y="2.37823" width="1.53886" height="4.89637" fill="white"/>
  <rect x="9.79279" width="0.279793" height="9.65285" fill="white"/>
  <rect x="13.5696" y="2.37823" width="1.53886" height="4.89637" fill="white"/>
  <rect x="14.2699" width="0.279793" height="9.65285" fill="white"/>
  <rect x="18.046" y="2.37823" width="1.53886" height="4.89637" fill="white"/>
  <rect x="18.7463" width="0.279793" height="9.65285" fill="white"/>
  <rect x="22.5233" y="2.37823" width="1.53886" height="4.89637" fill="white"/>
  <rect x="23.2226" width="0.279793" height="9.65285" fill="white"/>
  <rect x="30.0776" y="2.37823" width="1.53886" height="4.89637" fill="white"/>
  <rect x="30.7773" width="0.279793" height="9.65285" fill="white"/>
  <rect x="34.5542" y="2.37823" width="1.53886" height="4.89637" fill="white"/>
  <rect x="35.254" width="0.279793" height="9.65285" fill="white"/>
  <rect x="4.47662" y="2.37823" width="1.53886" height="4.89637" fill="white"/>
  <rect x="5.1759" width="0.279793" height="9.65285" fill="white"/>
  <rect x="9.09302" y="19.7253" width="1.53886" height="4.89637" fill="white"/>
  <rect x="9.79279" y="17.3472" width="0.279793" height="9.65285" fill="white"/>
  <rect x="13.5696" y="19.7253" width="1.53886" height="4.89637" fill="white"/>
  <rect x="14.2699" y="17.3472" width="0.279793" height="9.65285" fill="white"/>
  <rect x="4.47662" y="19.7253" width="1.53886" height="4.89637" fill="white"/>
  <rect x="5.1759" y="17.3472" width="0.279793" height="9.65285" fill="white"/>
</svg>