<svg version="1.2" xmlns="http://www.w3.org/2000/svg" viewBox="0 0 873 237" width="873" height="237">
	<title>logo-svg</title>
	<style>
		.s0 { fill: #de4639 } 
		.s1 { fill: #3ab275 } 
		.s2 { fill: #ffffff } 
	</style>
	<path id="Layer" class="s0" d="m19 58.4h12.5v130.5h-12.5z"/>
	<path id="Layer" class="s0" d="m24.7 36.8h2.2v173.6h-2.2z"/>
	<path id="Layer" class="s1" d="m232 32h13v181h-13z"/>
	<path id="Layer" class="s1" d="m238 13h2.3v219h-2.3z"/>
	<path id="Layer" class="s0" d="m92.8 32.3h12.4v39.7h-12.4z"/>
	<path id="Layer" class="s0" d="m98.4 13h2.3v78.3h-2.3z"/>
	<path id="Layer" class="s0" d="m129.1 32.3h12.4v39.7h-12.4z"/>
	<path id="Layer" class="s0" d="m134.7 13h2.3v78.3h-2.3z"/>
	<path id="Layer" class="s1" d="m165.4 32.3h12.5v39.7h-12.5z"/>
	<path id="Layer" class="s1" d="m171.1 13h2.2v78.3h-2.2z"/>
	<path id="Layer" class="s1" d="m201.7 32.3h12.5v39.7h-12.5z"/>
	<path id="Layer" class="s1" d="m207.4 13h2.2v78.3h-2.2z"/>
	<path id="Layer" class="s1" d="m263 32.3h12.4v39.7h-12.4z"/>
	<path id="Layer" class="s1" d="m268.6 13h2.3v78.3h-2.3z"/>
	<path id="Layer" class="s1" d="m299.3 32.3h12.5v39.7h-12.5z"/>
	<path id="Layer" class="s1" d="m304.9 13h2.3v78.3h-2.3z"/>
	<path id="Layer" class="s0" d="m55.3 32.3h12.5v39.7h-12.5z"/>
	<path id="Layer" class="s0" d="m61 13h2.3v78.3h-2.3z"/>
	<path id="Layer" class="s0" d="m92.8 173h12.4v39.7h-12.4z"/>
	<path id="Layer" class="s0" d="m98.4 153.7h2.3v78.3h-2.3z"/>
	<path id="Layer" class="s0" d="m129.1 173h12.4v39.7h-12.4z"/>
	<path id="Layer" class="s0" d="m134.7 153.7h2.3v78.3h-2.3z"/>
	<path id="Layer" class="s0" d="m55.3 173h12.5v39.7h-12.5z"/>
	<path id="Layer" class="s0" d="m61 153.7h2.3v78.3h-2.3z"/>
	<path id="Layer" fill-rule="evenodd" class="s2" d="m450.2 153.3h-22.3v54.7h-13.6v-54.7h-22.3v-12.3h58.2zm80.9 54.7h-16.6l-22.1-24.6h-7.1v24.6h-13.6v-67h32.1c7.2 0 13 2 17.4 5.9q6.6 5.8 6.6 15.3c0 5.6-1.8 10.3-5.2 14-3.5 3.8-8.2 6.1-14 6.9zm-45.8-36.9h18.5c3.1 0 5.6-0.8 7.6-2.4 1.9-1.6 2.9-3.8 2.9-6.5 0-2.6-1-4.8-2.9-6.4-2-1.6-4.5-2.5-7.6-2.5h-18.5zm131 36.9h-14.7l-5.8-14.3h-29.6l-5.9 14.3h-14.7l29-67h12.7zm-25.6-26.6l-9.7-23.9-9.8 23.9zm45.1-40.4h24.7q16.5 0 26.7 9.3c6.7 6.2 10.1 14.2 10.1 24.2 0 10-3.4 18.1-10.1 24.3-6.8 6.2-15.7 9.2-26.7 9.2h-24.7zm13.6 54.7h11.1q10.5 0 16.8-5.7c4.2-3.8 6.3-9 6.3-15.5 0-6.4-2.1-11.6-6.3-15.4-4.2-3.8-9.8-5.8-16.8-5.8h-11.1zm122.2 0v12.3h-50.9v-67h50.7v12.3h-37.1v15.1h34.2v12.1h-34.2v15.2zm84.4 12.3h-16.6l-22.1-24.6h-7.1v24.6h-13.6v-67h32.1c7.2 0 13 2 17.4 5.9q6.6 5.8 6.6 15.3c0 5.6-1.8 10.3-5.2 14-3.5 3.8-8.2 6.1-14 6.9zm-45.8-36.9h18.5c3.1 0 5.6-0.8 7.6-2.4 1.9-1.6 2.9-3.8 2.9-6.5 0-2.6-1-4.8-2.9-6.4-2-1.6-4.5-2.5-7.6-2.5h-18.5z"/>
	<path id="Layer" fill-rule="evenodd" class="s2" d="m428.8 91.4c6.2 0 11.7-1.5 16.4-4.6 4.7-3 8.1-7.2 10.1-12.5l4.9 1.2c-2.3 6.4-6.2 11.4-11.8 15.1-5.6 3.7-12.2 5.5-19.6 5.5-9.7 0-17.9-3.3-24.5-10-6.7-6.7-10-14.9-10-24.6 0-9.6 3.3-17.8 10-24.5 6.6-6.7 14.8-10.1 24.5-10.1 7.4 0 14 1.9 19.6 5.5 5.6 3.7 9.5 8.6 11.8 14.8l-4.8 1.5c-2-5.2-5.3-9.4-10-12.5-4.8-3-10.3-4.6-16.6-4.6q-12.4 0-21 8.7c-5.7 5.8-8.5 12.8-8.5 21.2 0 8.4 2.8 15.5 8.5 21.3 5.7 5.8 12.7 8.6 21 8.6zm90.8-64.5c9.6 0 17.7 3.4 24.3 10.1 6.6 6.7 9.9 14.9 9.9 24.5q0 14.7-9.9 24.6c-6.6 6.7-14.7 10-24.3 10-9.7 0-17.8-3.3-24.4-10q-9.9-9.9-9.9-24.6c0-9.6 3.3-17.8 9.9-24.5 6.6-6.7 14.8-10.1 24.4-10.1zm0 64.5c8.2 0 15.1-2.8 20.7-8.6 5.6-5.7 8.5-12.8 8.5-21.3 0-8.4-2.9-15.4-8.5-21.2q-8.4-8.7-20.7-8.7c-8.3 0-15.3 2.9-20.9 8.7-5.6 5.8-8.4 12.8-8.4 21.2q0 12.8 8.4 21.3c5.6 5.8 12.6 8.6 20.9 8.6zm62.6-63.4h28.3c6.8 0 12.2 1.9 16.4 5.6 4.1 3.7 6.2 8.5 6.2 14.3 0 6-2.1 10.8-6.2 14.5-4.2 3.7-9.6 5.5-16.4 5.5h-23.2v27.1h-5.1zm5.1 35.3h23.2c5.2 0 9.5-1.4 12.7-4.3q4.8-4.2 4.8-11.1c0-4.5-1.6-8.2-4.8-11-3.2-2.8-7.5-4.3-12.7-4.3h-23.2zm97.5 7.3v24.4h-5.1v-24.4l-28.3-42.6h5.7l25.2 37.7 25.1-37.7h5.8z"/>
</svg>